<svg width="572" height="663" viewBox="0 0 572 663" fill="none" xmlns="http://www.w3.org/2000/svg">
<g clip-path="url(#clip0_34_165)">
<path fill-rule="evenodd" clip-rule="evenodd" d="M95.3345 212.881H95.1302C89.4174 212.881 84.7402 217.638 84.7402 223.456V265.347C84.7402 270.763 88.7905 275.261 93.9538 275.857V275.929H136.486L138.388 276C138.388 276 149.165 290.822 150.44 293.204C151.715 295.593 154.195 296.748 157.167 294.725C160.147 292.702 157.879 288.433 157.879 288.433C157.879 288.433 143.565 267.033 141.008 263.345C138.458 259.657 137.254 260.526 136.486 260.31H105.724V246.78C105.809 246.787 105.901 246.787 105.992 246.787H132.083C134.535 246.787 136.542 244.742 136.542 242.246V242.152C136.542 239.656 134.535 237.611 132.083 237.611H105.992C105.901 237.611 105.809 237.611 105.724 237.618V223.456C105.724 217.638 101.047 212.881 95.3345 212.881ZM99.5257 327.935C120.869 327.935 138.853 313.17 144.312 293.054C141.607 288.605 135.563 280.219 135.563 280.219C135.563 300.644 119.425 317.209 99.5257 317.209C79.6262 317.209 63.4882 300.644 63.4882 280.219C63.4882 268.267 69.0178 257.634 77.5975 250.876L78.0624 237.891C63.1923 245.847 53.0348 261.817 53.0348 280.219C53.0348 306.57 73.8571 327.935 99.5257 327.935ZM95.2358 209.847C101.576 209.847 106.718 204.567 106.718 198.06C106.718 191.553 101.576 186.272 95.2358 186.272C88.8891 186.272 83.754 191.553 83.754 198.06C83.754 204.567 88.8891 209.847 95.2358 209.847Z" fill="#D61D12"/>
<path fill-rule="evenodd" clip-rule="evenodd" d="M346.97 270.577V322.92C346.97 326.263 344.448 328.996 341.37 328.996H341.257C338.172 328.996 335.65 326.263 335.65 322.92V219.152C333.903 219.589 332.304 220.371 331.543 221.699V262.606C331.543 265.397 329.296 267.685 326.556 267.685H326.458C323.717 267.685 321.477 265.397 321.477 262.606V216.361C321.477 216.131 321.492 215.902 321.52 215.679C321.661 213.692 322.104 208.29 323.316 205.937C324.739 203.189 332.53 201.46 335.65 201.46H362.22C365.341 201.46 373.132 203.189 374.555 205.937C375.766 208.29 376.21 213.692 376.351 215.679C376.379 215.902 376.393 216.131 376.393 216.361V262.606C376.393 265.397 374.153 267.685 371.413 267.685H371.314C368.574 267.685 366.327 265.397 366.327 262.606V221.699C365.566 220.371 363.974 219.589 362.22 219.152V322.92C362.22 326.263 359.699 328.996 356.613 328.996H356.501C353.422 328.996 350.901 326.263 350.901 322.92V270.577H346.97ZM348.935 196.682C356.486 196.682 362.615 190.433 362.615 182.728C362.615 175.023 356.486 168.774 348.935 168.774C341.384 168.774 335.256 175.023 335.256 182.728C335.256 190.433 341.384 196.682 348.935 196.682Z" fill="#DA127A"/>
<path fill-rule="evenodd" clip-rule="evenodd" d="M304.762 254.033V318.493C304.762 322.367 301.233 325.531 296.922 325.531H296.767C292.456 325.531 288.927 322.367 288.927 318.493V257.878H288.582V318.493C288.582 322.367 285.053 325.531 280.742 325.531H280.587C276.276 325.531 272.747 322.367 272.747 318.493V244.068C271.563 244.728 270.07 245.122 268.457 245.122H268.316C264.456 245.122 261.293 242.863 261.293 240.093V194.257C261.293 193.963 261.328 193.676 261.399 193.389C261.589 190.641 262.061 185.447 263.138 183.03C264.237 180.569 269.14 178.811 272.747 178.144V177.843H304.762V178.144C308.368 178.811 313.278 180.569 314.37 183.03C315.448 185.44 315.92 190.641 316.11 193.389C316.18 193.669 316.216 193.963 316.216 194.257V240.093C316.216 242.863 313.06 245.122 309.2 245.122H309.059C307.439 245.122 305.945 244.728 304.762 244.068V254.033ZM288.758 172.742C296.309 172.742 302.437 166.493 302.437 158.788C302.437 151.083 296.309 144.834 288.758 144.834C281.199 144.834 275.078 151.083 275.078 158.788C275.078 166.493 281.199 172.742 288.758 172.742Z" fill="#FFF401"/>
<path fill-rule="evenodd" clip-rule="evenodd" d="M179.99 290.435V325.323C179.99 327.554 178.307 329.377 176.257 329.377H176.179C174.123 329.377 172.439 327.554 172.439 325.323V256.156C171.277 256.451 170.213 256.967 169.699 257.857V285.126C169.699 286.984 168.206 288.505 166.381 288.505H166.318C164.486 288.505 162.993 286.984 162.993 285.126V254.298C162.993 254.141 163.007 253.99 163.021 253.839C163.113 252.512 163.416 248.911 164.219 247.347C165.17 245.517 170.361 244.362 172.439 244.362H190.155C192.233 244.362 197.431 245.517 198.375 247.347C199.178 248.911 199.481 252.512 199.573 253.839C199.594 253.99 199.601 254.141 199.601 254.298V285.126C199.601 286.984 198.108 288.505 196.283 288.505H196.213C194.388 288.505 192.895 286.984 192.895 285.126V257.857C192.388 256.967 191.317 256.451 190.155 256.156V325.323C190.155 327.554 188.471 329.377 186.414 329.377H186.344C184.287 329.377 182.604 327.554 182.604 325.323V290.435H179.99ZM181.3 241.177C186.33 241.177 190.416 237.016 190.416 231.879C190.416 226.742 186.33 222.574 181.3 222.574C176.264 222.574 172.178 226.742 172.178 231.879C172.178 237.016 176.264 241.177 181.3 241.177Z" fill="#25126E"/>
<path fill-rule="evenodd" clip-rule="evenodd" d="M474.714 193.439C483.724 193.439 491.028 186.301 491.028 177.491C491.028 168.688 483.724 161.55 474.714 161.55C465.705 161.55 458.4 168.688 458.4 177.491C458.4 186.301 465.705 193.439 474.714 193.439ZM495.945 202.823L509.019 240.352C509.019 240.352 514.689 251.63 514.83 253.66C514.971 255.683 521.353 287.781 521.494 290.098C521.635 292.408 524.755 314.971 525.319 316.994C525.889 319.017 527.305 328.559 527.305 328.559L505.053 329.14C505.053 329.14 503.778 324.943 504.483 323.645C505.194 322.346 511.999 320.029 513.274 320.029C514.549 320.029 515.112 319.598 515.112 319.598L508.307 279.831L506.469 272.019C506.469 272.019 503.067 270.72 501.503 273.181C499.946 275.635 490.169 290.528 489.598 291.396C489.035 292.264 489.035 328.559 489.035 328.559L467.057 327.834C467.057 327.834 466.212 319.885 471.03 318.874C475.848 317.862 479.11 318.006 479.11 318.006L478.539 285.47C478.539 285.47 491.965 267.033 494.557 265.512C497.157 263.998 499.094 258.861 499.094 258.861C499.094 258.861 494.621 244.979 493.416 241.944C492.212 238.91 488.669 233.127 488.669 233.127L473.143 252.792C473.143 252.792 476.898 255.827 477.328 259.371C477.75 262.915 477.257 266.674 476.968 267.972C476.687 269.271 474.418 270.29 473.284 269.924C472.15 269.565 472.362 266.602 472.432 265.583C472.502 264.572 472.721 260.454 470.664 260.167C468.607 259.873 468.959 259.299 467.896 260.167C466.832 261.035 467.05 262.843 465.698 263.273C464.352 263.704 461.45 264.357 461.091 263.058C460.739 261.752 460.457 259.801 460.457 259.801C460.457 259.801 457.477 259.945 456.703 261.537C455.921 263.13 440.896 330.733 440.896 330.733C440.896 330.733 437.564 333.624 435.93 331.959C434.302 330.295 435.648 327.189 435.648 327.189L449.187 265.878C449.187 265.878 451.666 253.007 458.33 251.78C464.993 250.546 466.48 250.546 466.48 250.546L484.921 222.854C484.921 222.854 479.11 207.099 478.687 205.219C478.307 203.555 477.933 190.512 489.937 194.566C492.98 195.592 494.966 200.011 495.945 202.823Z" fill="#8F3176"/>
<path fill-rule="evenodd" clip-rule="evenodd" d="M426.385 169.937C434.528 169.937 441.128 163.329 441.128 155.186C441.128 147.044 434.528 140.436 426.385 140.436C418.249 140.436 411.642 147.044 411.642 155.186C411.642 163.329 418.249 169.937 426.385 169.937ZM426.624 267.449C426.843 268.231 426.955 269.049 426.955 269.888V319.268C426.955 324.297 422.912 328.415 417.974 328.415H417.791C412.853 328.415 408.81 324.297 408.81 319.268V269.888C408.81 269.242 408.873 268.611 409 268.001C397.152 268.245 386.628 268.102 387.262 266.817C388.678 263.926 388.967 259.299 388.967 248.595C388.967 237.898 384.43 239.634 383.296 224.59C382.162 209.553 404.273 202.034 402.858 197.988C401.435 193.934 406.26 176.874 422.137 176.293C438.008 175.719 439.149 189.02 439.43 192.205C439.712 195.384 439.712 219.094 440.846 235.875C441.98 252.648 439.994 265.368 440.565 266.817C440.565 266.817 434.584 267.133 426.624 267.449ZM424.187 179.134H424.335C428.921 179.134 432.675 182.958 432.675 187.635V231.183C432.675 235.861 428.921 239.684 424.335 239.684H424.187C419.601 239.684 415.847 235.861 415.847 231.183V187.635C415.847 182.958 419.601 179.134 424.187 179.134ZM424.187 180.346H424.335C428.273 180.346 431.492 183.625 431.492 187.635V231.183C431.492 235.193 428.273 238.472 424.335 238.472H424.187C420.249 238.472 417.03 235.193 417.03 231.183V187.635C417.03 183.625 420.249 180.346 424.187 180.346Z" fill="#E47519"/>
<path fill-rule="evenodd" clip-rule="evenodd" d="M243.239 291.762V323.573C243.239 326.873 240.583 329.57 237.343 329.57H237.223C233.983 329.57 231.327 326.873 231.327 323.573C231.327 326.873 228.679 329.57 225.439 329.57H225.319C222.072 329.57 219.423 326.873 219.423 323.573V291.762H203.264L219.345 233.414C210.977 228.141 196.375 217.172 194.726 212.401C194.36 212.049 194.071 211.77 193.895 211.576C191.768 209.266 188.795 206.08 192.902 200.154C197.016 194.229 205.518 200.298 207.363 201.023C209.202 201.747 209.35 201.604 210.907 197.263C212.463 192.923 220.543 194.229 228.341 193.934C236.139 193.647 250.311 193.647 253.291 195.965C256.271 198.275 255.136 204.782 255.136 212.157C255.136 219.532 251.304 223.578 246.345 227.775C241.464 231.9 243.183 232.108 243.239 232.108L259.68 291.762H243.239ZM223.037 233.579C228.355 233.601 234.082 232.625 235.793 228.859C237.836 224.382 241.351 218.657 237.118 214.338C232.504 209.632 223.234 204.581 216.922 202.615C208.413 199.961 209.653 207.86 203.024 210.528C201.087 211.31 198.946 210.686 196.981 211.368L196.734 211.454L198.861 213.269C200.481 212.724 202.08 212.193 203.686 211.547C205.814 210.686 207.462 209.517 208.998 207.802C209.744 206.977 210.646 205.686 211.541 205.019C211.379 205.463 211.35 206.001 211.315 206.432C211.231 207.436 211.188 208.462 211.146 209.474C211.076 211.339 211.019 213.212 210.977 215.077C210.773 216.813 210.59 218.298 210.505 219.001C210.357 220.264 210.195 221.534 210.033 222.803L211.033 224.662C211.062 222.387 212.379 219.962 212.421 217.688C212.442 216.548 212.47 215.184 212.499 214.044C212.928 210.263 213.33 207.788 212.971 206.475C212.886 206.166 212.851 204.739 212.618 204.559C213.576 204.531 214.527 203.577 215.38 203.842C221.311 205.686 230.686 209.746 235.019 214.166C235.617 214.783 237.287 216.992 237.47 217.846C238.019 220.414 235.688 225.322 234.638 227.625C233.504 230.114 228.115 232.302 223.833 232.36C222.403 232.381 221.05 231.097 219.747 230.996C219.986 231.197 220.184 231.348 220.325 231.463C221.205 232.151 222.177 232.898 223.037 233.579ZM213.534 225.774L215.95 225.86C217.993 225.006 219.669 225.809 221.705 224.949C224.474 223.772 225.967 222.222 228.714 220.988C229.39 220.214 230.827 217.789 234.624 219.023L235.54 218.255L233.962 217.903C232.511 216.598 230.672 218.406 228.94 219.18C226.242 220.393 223.516 221.562 220.79 222.717C218.38 223.743 215.957 224.762 213.534 225.774ZM231.327 184.393C239.16 184.393 245.507 177.986 245.507 170.08C245.507 162.174 239.16 155.76 231.327 155.76C223.501 155.76 217.155 162.174 217.155 170.08C217.155 177.986 223.501 184.393 231.327 184.393Z" fill="#009242"/>
<mask id="mask0_34_165" style="mask-type:luminance" maskUnits="userSpaceOnUse" x="0" y="341" width="572" height="132">
<path d="M0 341.702H572V472.101H0V341.702Z" fill="white"/>
</mask>
<g mask="url(#mask0_34_165)">
<path fill-rule="evenodd" clip-rule="evenodd" d="M137.719 391.111H94.933C93.8201 385.587 91.2067 381.289 87.0437 378.176C82.8877 375.062 77.4074 373.513 70.5958 373.513C61.4244 373.513 54.7607 376.892 50.6329 383.635C46.4769 390.372 44.3989 398.12 44.3989 406.844C44.3989 412.304 45.2582 417.584 47.0192 422.678C48.7732 427.771 51.7106 432.011 55.7962 435.426C59.8817 438.841 65.1859 440.549 71.7087 440.549C78.6612 440.549 84.0711 438.655 87.8678 434.902C91.6716 431.122 93.9962 426.186 94.933 420.023H138.613C137.831 430.175 134.493 439.142 128.618 446.919C122.708 454.667 114.889 460.651 105.182 464.826C95.4332 469.002 84.5712 471.111 72.5681 471.111C64.2561 471.111 55.9018 469.92 47.5194 467.574C39.1299 465.192 31.2828 461.44 24.0837 456.289C16.8424 451.159 11.0381 444.48 6.66375 436.215C2.28938 427.979 0.105713 418.316 0.105713 407.21C0.105713 398.522 1.82447 390.221 5.30424 382.351C8.77697 374.488 13.6867 367.622 20.0334 361.732C26.3731 355.85 33.9736 351.244 42.7858 347.922C51.6049 344.593 61.2412 342.95 71.7087 342.95C84.0006 342.95 94.3906 344.715 102.886 348.252C111.381 351.76 118.009 356.122 122.778 361.309C127.54 366.496 131.055 371.676 133.309 376.863C135.535 382.05 137 386.806 137.719 391.111ZM155.139 467.968V345.906H228.284C243.619 345.906 255.305 347.857 263.329 351.76C269.457 354.752 274.367 358.87 278.023 364.114C281.714 369.395 283.545 374.94 283.545 380.859C283.545 387.603 281.714 393.758 278.093 399.376C274.437 404.986 269.175 409.075 262.216 411.601C274.367 415.202 281.319 425.267 283.116 441.797L284.581 454.789C284.975 461.411 286.194 465.802 288.272 467.968H244.873C243.366 464.826 242.182 458.728 241.4 449.667C240.752 443.748 239.823 439.142 238.604 435.821C237.385 432.499 235.089 429.873 231.757 427.922C228.461 425.971 223.621 424.995 217.282 424.995H198.143V467.968H155.139ZM198.143 374.273V399.16H222.691C235.019 399.16 241.182 394.705 241.182 385.802C241.182 378.111 234.23 374.273 220.325 374.273H198.143ZM390.411 345.906L443.305 467.968H398.582L391.7 450.765H345.47L338.588 467.968H294.076L346.977 345.906H390.411ZM382.669 424.564L368.94 383.27L353.852 424.564H382.669ZM566.259 383.054H524.981C524.868 378.664 523.22 375.371 520.106 373.204C516.986 371.009 512.795 369.911 507.526 369.911C497.523 369.911 492.508 373.025 492.508 379.216C492.508 381.469 493.874 383.241 496.593 384.518C499.319 385.802 504.335 387.201 511.611 388.729C518.923 390.286 522.72 391.075 523.008 391.14C533.758 393.701 542.429 396.291 549.057 398.916C555.693 401.506 561.173 405.409 565.512 410.567C569.845 415.719 572.035 422.52 572.035 431C572.035 440.032 568.985 447.529 562.857 453.477C556.729 459.431 548.776 463.786 539.027 466.562C529.313 469.31 518.958 470.68 507.991 470.68C496.664 470.68 486.203 469.095 476.595 465.924C467.029 462.753 459.323 457.874 453.483 451.281C447.644 444.667 444.664 436.524 444.523 426.76H488.64C489.035 432.191 491.183 436.28 495.015 438.992C498.89 441.704 504.046 443.081 510.569 443.081C516.162 443.081 520.606 442.407 523.903 441.094C527.2 439.752 528.848 437.134 528.848 433.195C528.848 431.186 527.735 429.385 525.516 427.8C523.29 426.214 520.642 424.902 517.556 423.833C514.478 422.8 511.252 421.881 507.92 421.092C504.588 420.324 501.933 419.715 500.038 419.263C490.394 416.788 483.301 414.865 478.751 413.495C474.2 412.153 469.643 410.108 465.022 407.425C460.436 404.713 456.815 401.234 454.125 396.994C451.476 392.754 450.152 387.445 450.152 381.045C450.152 371.891 453.195 364.509 459.288 358.87C465.381 353.26 472.904 349.264 481.864 346.91C490.824 344.565 499.749 343.374 508.639 343.374C516.556 343.374 523.938 344.105 530.715 345.569C537.484 347.068 543.507 349.386 548.846 352.557C554.15 355.728 558.342 359.846 561.427 364.939C564.505 370.004 566.118 376.038 566.259 383.054Z" fill="#1B1918"/>
</g>
<path fill-rule="evenodd" clip-rule="evenodd" d="M10.6225 132.745L276.952 1.77257C278.706 0.603175 280.812 -0.0209841 282.953 0.000538528C285.088 -0.0209841 287.194 0.603175 288.948 1.77257L555.284 132.745C560.286 135.206 562.272 141.125 559.687 145.896L559.595 146.075C557.01 150.846 550.804 152.733 545.796 150.272L282.953 21.0139L20.1038 150.272C15.0955 152.733 8.88966 150.846 6.31153 146.075L6.21291 145.896C3.63478 141.125 5.61416 135.206 10.6225 132.745Z" fill="#1B1918"/>
<path fill-rule="evenodd" clip-rule="evenodd" d="M2.36682 663H563.533V494.427H2.36682V663Z" fill="#D9DADB"/>
<path fill-rule="evenodd" clip-rule="evenodd" d="M49.5339 532.996H41.236C41.0176 531.453 40.5104 530.248 39.7074 529.38C38.9044 528.512 37.8407 528.081 36.5165 528.081C34.7413 528.081 33.4452 529.021 32.6493 530.908C31.8392 532.788 31.4377 534.954 31.4377 537.394C31.4377 538.915 31.6067 540.392 31.9449 541.813C32.29 543.241 32.8535 544.424 33.6495 545.379C34.4385 546.333 35.4669 546.806 36.7348 546.806C38.0802 546.806 39.1298 546.283 39.8694 545.235C40.602 544.173 41.0528 542.796 41.236 541.074H49.703C49.555 543.908 48.907 546.419 47.7658 548.593C46.6177 550.752 45.1032 552.424 43.2224 553.593C41.3346 554.755 39.2284 555.344 36.8968 555.344C35.2908 555.344 33.6706 555.014 32.0435 554.361C30.4163 553.693 28.8948 552.646 27.5 551.204C26.0983 549.776 24.9712 547.904 24.1259 545.601C23.2736 543.298 22.851 540.593 22.851 537.494C22.851 535.069 23.182 532.745 23.8583 530.549C24.5345 528.354 25.4854 526.431 26.7111 524.789C27.9438 523.146 29.416 521.861 31.1277 520.929C32.8324 520.003 34.7061 519.537 36.7348 519.537C39.1157 519.537 41.1303 520.032 42.7786 521.022C44.427 522.005 45.709 523.225 46.6317 524.667C47.5616 526.116 48.2378 527.565 48.6745 529.014C49.1042 530.463 49.393 531.791 49.5339 532.996ZM75.921 520.369V528.498H61.0862V533.096H74.5474V540.665H61.0862V546.031H76.2943V554.468H52.8728V520.369H75.921ZM105.274 520.369V554.468H97.1448L88.389 535.858V554.468H80.1827V520.369H88.6074L97.0603 538.57V520.369H105.274ZM133.253 520.369V529.222H125.504V554.468H116.995V529.222H109.211V520.369H133.253ZM137.162 554.468V520.369H151.342C154.314 520.369 156.583 520.914 158.139 522.005C159.323 522.837 160.274 523.985 160.985 525.456C161.704 526.926 162.056 528.476 162.056 530.133C162.056 532.013 161.704 533.735 160.999 535.306C160.288 536.87 159.266 538.011 157.921 538.721C160.274 539.725 161.626 542.538 161.971 547.158L162.253 550.788C162.331 552.639 162.57 553.866 162.972 554.468H154.561C154.265 553.593 154.04 551.886 153.885 549.353C153.758 547.703 153.575 546.419 153.342 545.486C153.103 544.561 152.659 543.829 152.018 543.284C151.377 542.738 150.44 542.459 149.208 542.459H145.495V554.468H137.162ZM145.495 528.29V535.241H150.257C152.645 535.241 153.843 534 153.843 531.511C153.843 529.366 152.497 528.29 149.799 528.29H145.495ZM179.849 519.537C181.941 519.537 183.843 519.982 185.562 520.879C187.267 521.761 188.732 523.024 189.95 524.645C191.169 526.274 192.092 528.175 192.74 530.363C193.374 532.551 193.698 534.911 193.698 537.444C193.698 540.062 193.367 542.451 192.719 544.647C192.071 546.828 191.127 548.715 189.88 550.322C188.647 551.921 187.147 553.163 185.386 554.031C183.632 554.913 181.688 555.344 179.56 555.344C177.49 555.344 175.51 554.863 173.622 553.88C171.742 552.904 170.15 551.477 168.839 549.611C167.719 547.983 166.881 546.118 166.332 544.023C165.789 541.928 165.508 539.754 165.508 537.494C165.508 534.832 165.839 532.408 166.508 530.212C167.17 528.01 168.135 526.109 169.396 524.509C170.657 522.916 172.178 521.689 173.953 520.828C175.728 519.967 177.694 519.537 179.849 519.537ZM179.772 528.081C177.785 528.081 176.341 529 175.447 530.829C174.545 532.673 174.094 534.904 174.094 537.544C174.094 540.134 174.545 542.33 175.461 544.116C176.362 545.917 177.799 546.806 179.772 546.806C181.082 546.806 182.124 546.347 182.935 545.422C183.731 544.489 184.294 543.312 184.625 541.892C184.949 540.479 185.111 538.958 185.111 537.343C185.111 534.388 184.653 532.106 183.731 530.542C182.787 528.899 181.469 528.081 179.772 528.081ZM210.16 520.369H222.593C226.692 520.369 229.947 521.696 232.342 524.344C233.765 525.886 234.835 527.809 235.561 530.105C236.272 532.408 236.639 534.804 236.639 537.293C236.639 542.99 235.314 547.373 232.673 550.422C231.764 551.469 230.771 552.295 229.679 552.89C228.587 553.5 227.46 553.909 226.284 554.131C225.107 554.361 223.825 554.468 222.424 554.468H210.16V520.369ZM218.5 528.856V546.031H221.867C223.797 546.031 225.276 545.386 226.298 544.102C227.46 542.523 228.045 540.235 228.045 537.25C228.045 535.815 227.819 534.452 227.354 533.168C226.89 531.877 226.213 530.879 225.333 530.176C224.269 529.294 222.853 528.856 221.085 528.856H218.5ZM263.216 520.369V528.498H248.388V533.096H261.842V540.665H248.388V546.031H263.596V554.468H240.175V520.369H263.216ZM280.439 554.468V520.369H294.618C297.591 520.369 299.859 520.914 301.409 522.005C302.599 522.837 303.55 523.985 304.262 525.456C304.973 526.926 305.332 528.476 305.332 530.133C305.332 532.013 304.973 533.735 304.276 535.306C303.564 536.87 302.543 538.011 301.198 538.721C303.55 539.725 304.903 542.538 305.248 547.158L305.53 550.788C305.607 552.639 305.847 553.866 306.248 554.468H297.83C297.542 553.593 297.316 551.886 297.161 549.353C297.034 547.703 296.851 546.419 296.619 545.486C296.379 544.561 295.936 543.829 295.288 543.284C294.654 542.738 293.717 542.459 292.484 542.459H288.772V554.468H280.439ZM288.772 528.29V535.241H293.534C295.922 535.241 297.119 534 297.119 531.511C297.119 529.366 295.774 528.29 293.076 528.29H288.772ZM333.002 520.369V528.498H318.174V533.096H331.628V540.665H318.174V546.031H333.382V554.468H309.96V520.369H333.002ZM358.776 520.369V528.856H345.73V534.323H356.987V542.2H345.73V554.468H337.27V520.369H358.776ZM384.874 520.369V528.498H370.039V533.096H383.493V540.665H370.039V546.031H385.247V554.468H361.826V520.369H384.874ZM389.164 554.468V520.369H403.344C406.323 520.369 408.584 520.914 410.141 522.005C411.332 522.837 412.283 523.985 412.987 525.456C413.705 526.926 414.058 528.476 414.058 530.133C414.058 532.013 413.705 533.735 413.001 535.306C412.297 536.87 411.275 538.011 409.923 538.721C412.283 539.725 413.628 542.538 413.98 547.158L414.262 550.788C414.339 552.639 414.572 553.866 414.98 554.468H406.563C406.274 553.593 406.042 551.886 405.887 549.353C405.767 547.703 405.584 546.419 405.344 545.486C405.112 544.561 404.668 543.829 404.02 543.284C403.379 542.738 402.442 542.459 401.216 542.459H397.504V554.468H389.164ZM397.504 528.29V535.241H402.259C404.654 535.241 405.851 534 405.851 531.511C405.851 529.366 404.499 528.29 401.801 528.29H397.504ZM441.734 520.369V528.498H426.899V533.096H440.36V540.665H426.899V546.031H442.107V554.468H418.686V520.369H441.734ZM437.219 517.564H431.837L429.928 513.927L428.104 517.564H422.757L426.969 510.297H433.091L437.219 517.564ZM471.086 520.369V554.468H462.958L454.209 535.858V554.468H445.996V520.369H454.42L462.88 538.57V520.369H471.086ZM501.362 532.996H493.064C492.853 531.453 492.346 530.248 491.535 529.38C490.732 528.512 489.669 528.081 488.352 528.081C486.569 528.081 485.28 529.021 484.477 530.908C483.674 532.788 483.273 534.954 483.273 537.394C483.273 538.915 483.435 540.392 483.78 541.813C484.118 543.241 484.689 544.424 485.478 545.379C486.273 546.333 487.302 546.806 488.563 546.806C489.915 546.806 490.965 546.283 491.697 545.235C492.437 544.173 492.888 542.796 493.064 541.074H501.538C501.383 543.908 500.735 546.419 499.601 548.593C498.453 550.752 496.938 552.424 495.05 553.593C493.163 554.755 491.056 555.344 488.732 555.344C487.119 555.344 485.499 555.014 483.871 554.361C482.251 553.693 480.73 552.646 479.328 551.204C477.926 549.776 476.799 547.904 475.954 545.601C475.109 543.298 474.679 540.593 474.679 537.494C474.679 535.069 475.017 532.745 475.686 530.549C476.362 528.354 477.313 526.431 478.546 524.789C479.772 523.146 481.244 521.861 482.956 520.929C484.667 520.003 486.534 519.537 488.563 519.537C490.951 519.537 492.965 520.032 494.607 521.022C496.255 522.005 497.544 523.225 498.467 524.667C499.39 526.116 500.073 527.565 500.51 529.014C500.939 530.463 501.221 531.791 501.362 532.996ZM513.21 554.468H504.75V520.369H513.21V554.468ZM534.004 520.369L544.26 554.468H535.589L534.258 549.662H525.291L523.959 554.468H515.33L525.586 520.369H534.004ZM532.504 542.344L529.841 530.808L526.918 542.344H532.504ZM31.0784 568.035H43.5112C47.6109 568.035 50.8582 569.362 53.2532 572.016C54.6831 573.559 55.7538 575.474 56.4723 577.77C57.1908 580.073 57.5501 582.469 57.5501 584.959C57.5501 590.655 56.2328 595.039 53.5913 598.088C52.6826 599.135 51.6894 599.96 50.5976 600.563C49.5057 601.165 48.3716 601.574 47.1953 601.797C46.026 602.026 44.7369 602.134 43.3422 602.134H31.0784V568.035ZM39.4186 576.522V593.697H42.7857C44.7087 593.697 46.188 593.051 47.2094 591.767C48.3787 590.189 48.9633 587.907 48.9633 584.916C48.9633 583.481 48.7309 582.118 48.266 580.834C47.8011 579.549 47.1248 578.552 46.2443 577.842C45.1807 576.967 43.7648 576.522 41.9967 576.522H39.4186ZM75.5124 568.035L85.7686 602.134H77.0974L75.759 597.327H66.7989L65.4606 602.134H56.8316L67.0877 568.035H75.5124ZM74.0121 590.009L71.3494 578.473L68.4261 590.009H74.0121ZM116.819 568.035L127.075 602.134H118.404L117.065 597.327H108.105L106.767 602.134H98.138L108.394 568.035H116.819ZM115.319 590.009L112.656 578.473L109.733 590.009H115.319ZM150.912 578.416H142.903C142.889 577.189 142.565 576.264 141.959 575.661C141.353 575.044 140.543 574.743 139.522 574.743C137.585 574.743 136.613 575.611 136.613 577.34C136.613 577.971 136.873 578.466 137.402 578.825C137.93 579.184 138.902 579.571 140.318 579.994C141.734 580.432 142.466 580.654 142.523 580.669C144.608 581.386 146.291 582.111 147.573 582.842C148.862 583.567 149.926 584.657 150.764 586.1C151.603 587.542 152.032 589.443 152.032 591.81C152.032 594.328 151.441 596.43 150.25 598.088C149.06 599.752 147.517 600.972 145.629 601.747C143.748 602.514 141.741 602.894 139.614 602.894C137.416 602.894 135.387 602.45 133.527 601.567C131.675 600.678 130.174 599.314 129.047 597.478C127.913 595.627 127.336 593.353 127.308 590.626H135.859C135.937 592.14 136.352 593.281 137.099 594.041C137.845 594.802 138.846 595.182 140.114 595.182C141.198 595.182 142.058 594.996 142.699 594.63C143.34 594.257 143.657 593.525 143.657 592.42C143.657 591.86 143.438 591.358 143.009 590.913C142.579 590.469 142.065 590.103 141.466 589.809C140.874 589.514 140.247 589.263 139.599 589.041C138.951 588.826 138.437 588.654 138.071 588.524C136.204 587.836 134.824 587.298 133.943 586.917C133.063 586.544 132.175 585.97 131.28 585.224C130.393 584.464 129.688 583.495 129.167 582.304C128.653 581.121 128.399 579.643 128.399 577.849C128.399 575.295 128.991 573.229 130.167 571.658C131.351 570.087 132.809 568.967 134.549 568.315C136.282 567.662 138.015 567.325 139.74 567.325C141.276 567.325 142.706 567.533 144.016 567.942C145.333 568.358 146.496 569.003 147.531 569.893C148.559 570.775 149.377 571.93 149.975 573.351C150.567 574.764 150.884 576.45 150.912 578.416ZM177.257 578.416H169.255C169.234 577.189 168.91 576.264 168.311 575.661C167.705 575.044 166.888 574.743 165.867 574.743C163.93 574.743 162.958 575.611 162.958 577.34C162.958 577.971 163.225 578.466 163.754 578.825C164.282 579.184 165.254 579.571 166.663 579.994C168.079 580.432 168.818 580.654 168.875 580.669C170.953 581.386 172.636 582.111 173.925 582.842C175.207 583.567 176.271 584.657 177.109 586.1C177.954 587.542 178.377 589.443 178.377 591.81C178.377 594.328 177.785 596.43 176.595 598.088C175.411 599.752 173.869 600.972 171.974 601.747C170.093 602.514 168.086 602.894 165.958 602.894C163.768 602.894 161.739 602.45 159.872 601.567C158.02 600.678 156.526 599.314 155.392 597.478C154.258 595.627 153.681 593.353 153.652 590.626H162.211C162.281 592.14 162.704 593.281 163.444 594.041C164.197 594.802 165.198 595.182 166.458 595.182C167.543 595.182 168.403 594.996 169.044 594.63C169.685 594.257 170.002 593.525 170.002 592.42C170.002 591.86 169.79 591.358 169.361 590.913C168.924 590.469 168.417 590.103 167.818 589.809C167.219 589.514 166.592 589.263 165.944 589.041C165.303 588.826 164.789 588.654 164.416 588.524C162.549 587.836 161.175 587.298 160.288 586.917C159.407 586.544 158.527 585.97 157.632 585.224C156.738 584.464 156.04 583.495 155.519 582.304C155.005 581.121 154.744 579.643 154.744 577.849C154.744 575.295 155.336 573.229 156.519 571.658C157.696 570.087 159.161 568.967 160.894 568.315C162.634 567.662 164.359 567.325 166.085 567.325C167.621 567.325 169.051 567.533 170.368 567.942C171.678 568.358 172.847 569.003 173.883 569.893C174.911 570.775 175.721 571.93 176.32 573.351C176.919 574.764 177.229 576.45 177.257 578.416ZM190.303 602.134H181.85V568.035H190.303V602.134ZM216.81 578.416H208.807C208.786 577.189 208.469 576.264 207.864 575.661C207.258 575.044 206.448 574.743 205.426 574.743C203.489 574.743 202.517 575.611 202.517 577.34C202.517 577.971 202.778 578.466 203.306 578.825C203.834 579.184 204.806 579.571 206.215 579.994C207.631 580.432 208.371 580.654 208.427 580.669C210.512 581.386 212.196 582.111 213.478 582.842C214.76 583.567 215.823 584.657 216.669 586.1C217.507 587.542 217.93 589.443 217.93 591.81C217.93 594.328 217.338 596.43 216.154 598.088C214.964 599.752 213.421 600.972 211.534 601.747C209.653 602.514 207.638 602.894 205.518 602.894C203.32 602.894 201.291 602.45 199.432 601.567C197.572 600.678 196.079 599.314 194.945 597.478C193.818 595.627 193.24 593.353 193.212 590.626H201.763C201.841 592.14 202.256 593.281 203.003 594.041C203.75 594.802 204.75 595.182 206.018 595.182C207.096 595.182 207.962 594.996 208.603 594.63C209.237 594.257 209.561 593.525 209.561 592.42C209.561 591.86 209.343 591.358 208.913 590.913C208.483 590.469 207.969 590.103 207.37 589.809C206.772 589.514 206.145 589.263 205.504 589.041C204.856 588.826 204.342 588.654 203.975 588.524C202.102 587.836 200.728 587.298 199.847 586.917C198.96 586.544 198.079 585.97 197.185 585.224C196.297 584.464 195.593 583.495 195.072 582.304C194.557 581.121 194.304 579.643 194.304 577.849C194.304 575.295 194.888 573.229 196.072 571.658C197.255 570.087 198.713 568.967 200.446 568.315C202.186 567.662 203.919 567.325 205.638 567.325C207.173 567.325 208.61 567.533 209.92 567.942C211.231 568.358 212.4 569.003 213.435 569.893C214.464 570.775 215.274 571.93 215.873 573.351C216.471 574.764 216.788 576.45 216.81 578.416ZM242.95 568.035V576.888H235.195V602.134H226.692V576.888H218.902V568.035H242.95ZM269.865 568.035V576.163H255.038V580.762H268.492V588.331H255.038V593.697H270.246V602.134H246.824V568.035H269.865ZM265.35 565.23H259.976L258.06 561.592L256.235 565.23H250.896L255.101 557.962H261.222L265.35 565.23ZM299.225 568.035V602.134H291.096L282.341 583.524V602.134H274.127V568.035H282.552L291.012 586.236V568.035H299.225ZM329.494 580.661H321.203C320.984 579.119 320.477 577.921 319.674 577.053C318.864 576.178 317.8 575.747 316.483 575.747C314.701 575.747 313.412 576.694 312.609 578.574C311.806 580.461 311.404 582.62 311.404 585.059C311.404 586.587 311.573 588.058 311.912 589.479C312.25 590.906 312.82 592.09 313.609 593.044C314.405 593.998 315.434 594.479 316.694 594.479C318.047 594.479 319.097 593.948 319.829 592.901C320.569 591.846 321.02 590.461 321.203 588.74H329.67C329.515 591.581 328.874 594.084 327.733 596.258C326.584 598.425 325.07 600.089 323.189 601.259C321.294 602.428 319.195 603.016 316.864 603.016C315.25 603.016 313.63 602.679 312.01 602.026C310.383 601.359 308.861 600.312 307.467 598.87C306.058 597.442 304.938 595.577 304.086 593.267C303.24 590.964 302.818 588.266 302.818 585.16C302.818 582.735 303.149 580.418 303.825 578.215C304.494 576.02 305.452 574.104 306.678 572.454C307.911 570.811 309.383 569.527 311.094 568.594C312.799 567.669 314.666 567.21 316.694 567.21C319.082 567.21 321.097 567.705 322.745 568.688C324.387 569.671 325.676 570.89 326.598 572.339C327.521 573.789 328.204 575.238 328.641 576.68C329.071 578.129 329.36 579.463 329.494 580.661ZM341.342 602.134H332.889V568.035H341.342V602.134ZM362.136 568.035L372.392 602.134H363.721L362.389 597.327H353.422L352.091 602.134H343.462L353.718 568.035H362.136ZM360.635 590.009L357.973 578.473L355.049 590.009H360.635ZM409.155 578.416H401.153C401.132 577.189 400.808 576.264 400.209 575.661C399.603 575.044 398.786 574.743 397.765 574.743C395.828 574.743 394.856 575.611 394.856 577.34C394.856 577.971 395.123 578.466 395.644 578.825C396.173 579.184 397.152 579.571 398.561 579.994C399.977 580.432 400.716 580.654 400.766 580.669C402.851 581.386 404.534 582.111 405.816 582.842C407.105 583.567 408.169 584.657 409.007 586.1C409.852 587.542 410.275 589.443 410.275 591.81C410.275 594.328 409.683 596.43 408.493 598.088C407.309 599.752 405.767 600.972 403.872 601.747C401.991 602.514 399.984 602.894 397.856 602.894C395.659 602.894 393.63 602.45 391.77 601.567C389.918 600.678 388.424 599.314 387.29 597.478C386.156 595.627 385.578 593.353 385.55 590.626H394.102C394.179 592.14 394.602 593.281 395.342 594.041C396.095 594.802 397.096 595.182 398.356 595.182C399.441 595.182 400.301 594.996 400.942 594.63C401.583 594.257 401.9 593.525 401.9 592.42C401.9 591.86 401.688 591.358 401.252 590.913C400.822 590.469 400.308 590.103 399.716 589.809C399.117 589.514 398.49 589.263 397.842 589.041C397.194 588.826 396.68 588.654 396.314 588.524C394.447 587.836 393.073 587.298 392.186 586.917C391.305 586.544 390.425 585.97 389.523 585.224C388.636 584.464 387.938 583.495 387.417 582.304C386.903 581.121 386.642 579.643 386.642 577.849C386.642 575.295 387.234 573.229 388.417 571.658C389.594 570.087 391.059 568.967 392.792 568.315C394.531 567.662 396.257 567.325 397.983 567.325C399.519 567.325 400.949 567.533 402.259 567.942C403.576 568.358 404.745 569.003 405.781 569.893C406.809 570.775 407.619 571.93 408.218 573.351C408.817 574.764 409.127 576.45 409.155 578.416ZM426.864 567.21C428.956 567.21 430.858 567.647 432.577 568.544C434.288 569.434 435.753 570.689 436.965 572.311C438.184 573.939 439.106 575.84 439.754 578.028C440.395 580.217 440.712 582.577 440.712 585.109C440.712 587.728 440.388 590.124 439.733 592.312C439.085 594.493 438.141 596.387 436.902 597.987C435.662 599.587 434.161 600.835 432.4 601.703C430.646 602.579 428.709 603.016 426.575 603.016C424.504 603.016 422.532 602.528 420.637 601.546C418.756 600.57 417.164 599.142 415.854 597.277C414.734 595.648 413.903 593.783 413.353 591.688C412.804 589.593 412.522 587.42 412.522 585.16C412.522 582.505 412.86 580.073 413.522 577.878C414.184 575.675 415.15 573.774 416.417 572.174C417.671 570.582 419.193 569.355 420.968 568.494C422.743 567.633 424.708 567.21 426.864 567.21ZM426.786 575.747C424.8 575.747 423.356 576.665 422.461 578.495C421.567 580.339 421.116 582.57 421.116 585.21C421.116 587.8 421.567 589.995 422.475 591.781C423.377 593.582 424.814 594.479 426.786 594.479C428.096 594.479 429.146 594.013 429.949 593.087C430.752 592.155 431.309 590.978 431.64 589.557C431.964 588.144 432.126 586.63 432.126 585.009C432.126 582.053 431.668 579.779 430.752 578.208C429.801 576.565 428.484 575.747 426.786 575.747ZM469.804 580.661H461.507C461.295 579.119 460.788 577.921 459.978 577.053C459.175 576.178 458.111 575.747 456.794 575.747C455.012 575.747 453.723 576.694 452.92 578.574C452.117 580.461 451.715 582.62 451.715 585.059C451.715 586.587 451.877 588.058 452.222 589.479C452.561 590.906 453.131 592.09 453.92 593.044C454.716 593.998 455.745 594.479 457.005 594.479C458.351 594.479 459.4 593.948 460.14 592.901C460.88 591.846 461.33 590.461 461.507 588.74H469.981C469.826 591.581 469.178 594.084 468.036 596.258C466.895 598.425 465.381 600.089 463.493 601.259C461.605 602.428 459.499 603.016 457.174 603.016C455.561 603.016 453.941 602.679 452.314 602.026C450.687 601.359 449.172 600.312 447.771 598.87C446.369 597.442 445.242 595.577 444.396 593.267C443.544 590.964 443.122 588.266 443.122 585.16C443.122 582.735 443.46 580.418 444.129 578.215C444.805 576.02 445.756 574.104 446.989 572.454C448.214 570.811 449.687 569.527 451.398 568.594C453.11 567.669 454.977 567.21 457.005 567.21C459.386 567.21 461.401 567.705 463.049 568.688C464.698 569.671 465.98 570.89 466.909 572.339C467.832 573.789 468.515 575.238 468.952 576.68C469.382 578.129 469.664 579.463 469.804 580.661ZM481.653 602.134H473.193V568.035H481.653V602.134ZM502.447 568.035L512.703 602.134H504.032L502.693 597.327H493.733L492.402 602.134H483.773L494.022 568.035H502.447ZM500.946 590.009L498.284 578.473L495.36 590.009H500.946ZM535.617 593.281V602.134H514.746V568.035H523.199V593.281H535.617Z" fill="#1B1918"/>
<path fill-rule="evenodd" clip-rule="evenodd" d="M112.036 626.196V629.374H108.901V626.871C108.901 625.508 109.07 624.525 109.423 623.908C109.88 623.097 110.599 622.487 111.585 622.071L112.304 623.14C111.705 623.37 111.268 623.721 110.986 624.18C110.698 624.639 110.543 625.314 110.514 626.196H112.036ZM118.848 626.196V629.374H115.706V626.871C115.706 625.508 115.882 624.525 116.227 623.908C116.685 623.097 117.404 622.487 118.39 622.071L119.108 623.14C118.509 623.37 118.073 623.721 117.791 624.18C117.509 624.639 117.354 625.314 117.319 626.196H118.848ZM140.628 636.943L143.791 637.689C143.129 640.114 141.931 641.965 140.212 643.242C138.494 644.512 136.394 645.151 133.901 645.151C131.33 645.151 129.245 644.663 127.632 643.687C126.018 642.704 124.793 641.284 123.955 639.426C123.116 637.567 122.694 635.573 122.694 633.442C122.694 631.118 123.166 629.095 124.117 627.358C125.06 625.629 126.413 624.317 128.167 623.42C129.921 622.516 131.844 622.071 133.95 622.071C136.345 622.071 138.346 622.638 139.973 623.779C141.607 624.912 142.741 626.512 143.375 628.571L140.269 629.26C139.712 627.631 138.916 626.455 137.86 625.708C136.81 624.962 135.486 624.596 133.887 624.596C132.055 624.596 130.527 625.005 129.294 625.83C128.061 626.655 127.195 627.753 126.695 629.145C126.195 630.529 125.948 631.957 125.948 633.428C125.948 635.329 126.244 636.979 126.829 638.4C127.427 639.813 128.343 640.875 129.59 641.578C130.844 642.274 132.189 642.625 133.647 642.625C135.415 642.625 136.909 642.145 138.134 641.198C139.367 640.236 140.191 638.823 140.628 636.943ZM145.052 644.77L154.223 622.451H157.625L167.388 644.77H163.789L161.006 638.012H151.025L148.412 644.77H145.052ZM151.941 635.602H160.034L157.541 629.425C156.787 627.545 156.216 626.003 155.85 624.797C155.547 626.225 155.118 627.645 154.561 629.059L151.941 635.602ZM168.839 637.596L171.819 637.352C171.96 638.471 172.284 639.39 172.805 640.107C173.319 640.824 174.122 641.398 175.2 641.836C176.285 642.281 177.511 642.496 178.863 642.496C180.068 642.496 181.131 642.331 182.054 642.001C182.977 641.664 183.667 641.205 184.118 640.624C184.569 640.035 184.794 639.404 184.794 638.708C184.794 638.012 184.576 637.402 184.139 636.879C183.702 636.355 182.991 635.917 181.991 635.559C181.35 635.329 179.934 634.963 177.743 634.468C175.552 633.98 174.017 633.514 173.136 633.076C171.995 632.524 171.15 631.828 170.586 630.996C170.03 630.171 169.755 629.245 169.755 628.219C169.755 627.093 170.093 626.038 170.777 625.063C171.46 624.08 172.46 623.341 173.77 622.832C175.088 622.322 176.546 622.071 178.145 622.071C179.92 622.071 181.476 622.337 182.829 622.875C184.181 623.398 185.224 624.187 185.949 625.221C186.668 626.254 187.062 627.43 187.119 628.736L184.09 628.951C183.928 627.545 183.378 626.469 182.434 625.759C181.498 625.034 180.117 624.675 178.278 624.675C176.37 624.675 174.982 625.005 174.101 625.658C173.228 626.311 172.791 627.1 172.791 628.018C172.791 628.829 173.101 629.489 173.721 629.999C174.334 630.522 175.912 631.053 178.483 631.591C181.047 632.137 182.808 632.61 183.766 633.012C185.153 633.622 186.182 634.375 186.844 635.293C187.506 636.211 187.83 637.273 187.83 638.464C187.83 639.655 187.471 640.774 186.745 641.822C186.013 642.876 184.97 643.687 183.611 644.275C182.251 644.856 180.716 645.151 179.018 645.151C176.856 645.151 175.038 644.856 173.587 644.268C172.122 643.68 170.981 642.797 170.15 641.614C169.318 640.43 168.882 639.088 168.839 637.596ZM189.528 644.77L198.692 622.451H202.094L211.865 644.77H208.265L205.476 638.012H195.501L192.881 644.77H189.528ZM196.41 635.602H204.504L202.01 629.425C201.256 627.545 200.693 626.003 200.319 624.797C200.016 626.225 199.587 627.645 199.03 629.059L196.41 635.602ZM221.811 644.77V622.451H230.024C231.884 622.451 233.3 622.559 234.279 622.774C235.645 623.061 236.815 623.599 237.78 624.367C239.034 625.364 239.978 626.634 240.597 628.184C241.231 629.733 241.541 631.498 241.541 633.485C241.541 635.186 241.33 636.685 240.9 637.991C240.478 639.304 239.942 640.387 239.273 641.248C238.611 642.102 237.885 642.783 237.104 643.271C236.315 643.766 235.364 644.139 234.258 644.39C233.138 644.648 231.863 644.77 230.419 644.77H221.811ZM224.967 642.137H230.059C231.63 642.137 232.87 642.001 233.765 641.728C234.659 641.449 235.371 641.068 235.906 640.566C236.653 639.87 237.237 638.923 237.653 637.747C238.076 636.556 238.287 635.128 238.287 633.442C238.287 631.111 237.871 629.317 237.054 628.062C236.23 626.806 235.237 625.967 234.068 625.543C233.222 625.235 231.856 625.084 229.982 625.084H224.967V642.137ZM243.26 644.77L252.431 622.451H255.834L265.597 644.77H261.997L259.215 638.012H249.233L246.62 644.77H243.26ZM250.149 635.602H258.243L255.749 629.425C254.988 627.545 254.425 626.003 254.059 624.797C253.749 626.225 253.326 627.645 252.77 629.059L250.149 635.602ZM267.048 637.596L270.028 637.352C270.168 638.471 270.492 639.39 271.007 640.107C271.528 640.824 272.324 641.398 273.409 641.836C274.493 642.281 275.719 642.496 277.072 642.496C278.276 642.496 279.34 642.331 280.263 642.001C281.185 641.664 281.869 641.205 282.319 640.624C282.77 640.035 283.003 639.404 283.003 638.708C283.003 638.012 282.784 637.402 282.348 636.879C281.911 636.355 281.192 635.917 280.199 635.559C279.558 635.329 278.142 634.963 275.952 634.468C273.761 633.98 272.218 633.514 271.345 633.076C270.204 632.524 269.351 631.828 268.795 630.996C268.238 630.171 267.957 629.245 267.957 628.219C267.957 627.093 268.302 626.038 268.978 625.063C269.668 624.08 270.669 623.341 271.979 622.832C273.296 622.322 274.747 622.071 276.353 622.071C278.128 622.071 279.685 622.337 281.037 622.875C282.39 623.398 283.425 624.187 284.158 625.221C284.876 626.254 285.271 627.43 285.327 628.736L282.298 628.951C282.136 627.545 281.587 626.469 280.643 625.759C279.706 625.034 278.318 624.675 276.487 624.675C274.578 624.675 273.19 625.005 272.31 625.658C271.436 626.311 271 627.1 271 628.018C271 628.829 271.31 629.489 271.929 629.999C272.535 630.522 274.12 631.053 276.691 631.591C279.255 632.137 281.016 632.61 281.974 633.012C283.362 633.622 284.39 634.375 285.053 635.293C285.715 636.211 286.039 637.273 286.039 638.464C286.039 639.655 285.68 640.774 284.954 641.822C284.221 642.876 283.179 643.687 281.819 644.275C280.453 644.856 278.924 645.151 277.22 645.151C275.064 645.151 273.247 644.856 271.796 644.268C270.33 643.68 269.189 642.797 268.351 641.614C267.527 640.43 267.09 639.088 267.048 637.596ZM299.782 644.77V622.451H315.884V625.084H302.945V631.993H314.138V634.633H302.945V644.77H299.782ZM315.525 644.77L324.69 622.451H328.092L337.855 644.77H334.255L331.473 638.012H321.492L318.878 644.77H315.525ZM322.407 635.602H330.501L328.007 629.425C327.254 627.545 326.683 626.003 326.317 624.797C326.014 626.225 325.584 627.645 325.028 629.059L322.407 635.602ZM340.278 644.77V622.451H345.04L350.682 638.256C351.203 639.727 351.584 640.825 351.823 641.556C352.091 640.746 352.514 639.555 353.091 637.976L358.804 622.451H363.059V644.77H360.009V626.089L353.077 644.77H350.224L343.328 625.773V644.77H340.278ZM368.687 622.451H371.843V644.77H368.687V622.451ZM367.87 621.081L370.039 616.82H373.878L370.3 621.081H367.87ZM377.281 644.77V622.451H380.443V642.137H392.193V644.77H377.281ZM396.49 622.451H399.653V644.77H396.49V622.451ZM402.597 644.77L411.761 622.451H415.164L424.927 644.77H421.327L418.545 638.012H408.57L405.95 644.77H402.597ZM409.479 635.602H417.573L415.079 629.425C414.325 627.545 413.755 626.003 413.389 624.797C413.086 626.225 412.656 627.645 412.1 629.059L409.479 635.602ZM426.378 637.596L429.358 637.352C429.498 638.471 429.822 639.39 430.344 640.107C430.858 640.824 431.661 641.398 432.746 641.836C433.823 642.281 435.049 642.496 436.402 642.496C437.613 642.496 438.67 642.331 439.593 642.001C440.515 641.664 441.206 641.205 441.656 640.624C442.107 640.035 442.333 639.404 442.333 638.708C442.333 638.012 442.114 637.402 441.678 636.879C441.241 636.355 440.529 635.917 439.529 635.559C438.888 635.329 437.479 634.963 435.282 634.468C433.091 633.98 431.555 633.514 430.675 633.076C429.534 632.524 428.688 631.828 428.125 630.996C427.568 630.171 427.294 629.245 427.294 628.219C427.294 627.093 427.632 626.038 428.315 625.063C428.998 624.08 429.999 623.341 431.309 622.832C432.626 622.322 434.084 622.071 435.69 622.071C437.458 622.071 439.015 622.337 440.374 622.875C441.72 623.398 442.762 624.187 443.488 625.221C444.213 626.254 444.608 627.43 444.657 628.736L441.635 628.951C441.466 627.545 440.917 626.469 439.98 625.759C439.036 625.034 437.655 624.675 435.824 624.675C433.908 624.675 432.52 625.005 431.64 625.658C430.773 626.311 430.33 627.1 430.33 628.018C430.33 628.829 430.64 629.489 431.259 629.999C431.872 630.522 433.457 631.053 436.021 631.591C438.585 632.137 440.346 632.61 441.304 633.012C442.692 633.622 443.72 634.375 444.383 635.293C445.045 636.211 445.369 637.273 445.369 638.464C445.369 639.655 445.009 640.774 444.284 641.822C443.558 642.876 442.509 643.687 441.149 644.275C439.79 644.856 438.254 645.151 436.557 645.151C434.394 645.151 432.584 644.856 431.126 644.268C429.66 643.68 428.519 642.797 427.688 641.614C426.857 640.43 426.42 639.088 426.378 637.596ZM449.13 625.4V622.222H452.279V624.74C452.279 626.096 452.11 627.079 451.772 627.674C451.307 628.492 450.581 629.109 449.588 629.525L448.87 628.449C449.461 628.227 449.898 627.875 450.187 627.394C450.476 626.906 450.631 626.246 450.666 625.4H449.13ZM455.942 625.4V622.222H459.084V624.74C459.084 626.096 458.914 627.079 458.576 627.674C458.111 628.492 457.386 629.109 456.4 629.525L455.681 628.449C456.266 628.227 456.703 627.875 456.991 627.394C457.28 626.906 457.442 626.246 457.47 625.4H455.942Z" fill="#1B1918"/>
</g>
<defs>
<clipPath id="clip0_34_165">
<rect width="572" height="663" fill="white"/>
</clipPath>
</defs>
</svg>
